<svg id="visual" viewBox="0 0 1440 100" width="1440" height="100" xmlns="http://www.w3.org/2000/svg" xmlns:xlink="http://www.w3.org/1999/xlink" version="1.1"><path d="M0 59L11.5 60C23 61 46 63 68.8 62.7C91.7 62.3 114.3 59.7 137.2 58.8C160 58 183 59 205.8 59.3C228.7 59.7 251.3 59.3 274.2 60.3C297 61.3 320 63.7 342.8 63.8C365.7 64 388.3 62 411.2 61.7C434 61.3 457 62.7 480 63.7C503 64.7 526 65.3 548.8 64.2C571.7 63 594.3 60 617.2 58.8C640 57.7 663 58.3 685.8 59.2C708.7 60 731.3 61 754.2 61.7C777 62.3 800 62.7 822.8 63.2C845.7 63.7 868.3 64.3 891.2 64C914 63.7 937 62.3 960 61C983 59.7 1006 58.3 1028.8 58.8C1051.7 59.3 1074.3 61.7 1097.2 62.8C1120 64 1143 64 1165.8 63.3C1188.7 62.7 1211.3 61.3 1234.2 61.5C1257 61.7 1280 63.3 1302.8 63C1325.7 62.7 1348.3 60.3 1371.2 59.5C1394 58.7 1417 59.3 1428.5 59.7L1440 60L1440 101L1428.5 101C1417 101 1394 101 1371.2 101C1348.3 101 1325.7 101 1302.8 101C1280 101 1257 101 1234.2 101C1211.3 101 1188.7 101 1165.8 101C1143 101 1120 101 1097.2 101C1074.3 101 1051.7 101 1028.8 101C1006 101 983 101 960 101C937 101 914 101 891.2 101C868.3 101 845.7 101 822.8 101C800 101 777 101 754.2 101C731.3 101 708.7 101 685.8 101C663 101 640 101 617.2 101C594.3 101 571.7 101 548.8 101C526 101 503 101 480 101C457 101 434 101 411.2 101C388.3 101 365.7 101 342.8 101C320 101 297 101 274.2 101C251.3 101 228.7 101 205.8 101C183 101 160 101 137.2 101C114.3 101 91.7 101 68.8 101C46 101 23 101 11.5 101L0 101Z" fill="#30353a"></path><path d="M0 73L11.5 73.3C23 73.7 46 74.3 68.8 74.2C91.7 74 114.3 73 137.2 73.5C160 74 183 76 205.8 75.5C228.7 75 251.3 72 274.2 71.3C297 70.7 320 72.3 342.8 73C365.7 73.7 388.3 73.3 411.2 73.8C434 74.3 457 75.7 480 75.5C503 75.3 526 73.7 548.8 72.8C571.7 72 594.3 72 617.2 72C640 72 663 72 685.8 72.5C708.7 73 731.3 74 754.2 75C777 76 800 77 822.8 77.5C845.7 78 868.3 78 891.2 77C914 76 937 74 960 73.2C983 72.3 1006 72.7 1028.8 73C1051.7 73.3 1074.3 73.7 1097.2 73.7C1120 73.7 1143 73.3 1165.8 74C1188.7 74.7 1211.3 76.3 1234.2 76.3C1257 76.3 1280 74.7 1302.8 73.7C1325.7 72.7 1348.3 72.3 1371.2 72.8C1394 73.3 1417 74.7 1428.5 75.3L1440 76L1440 101L1428.5 101C1417 101 1394 101 1371.2 101C1348.3 101 1325.7 101 1302.8 101C1280 101 1257 101 1234.2 101C1211.3 101 1188.7 101 1165.8 101C1143 101 1120 101 1097.2 101C1074.3 101 1051.7 101 1028.8 101C1006 101 983 101 960 101C937 101 914 101 891.2 101C868.3 101 845.7 101 822.8 101C800 101 777 101 754.2 101C731.3 101 708.7 101 685.8 101C663 101 640 101 617.2 101C594.3 101 571.7 101 548.8 101C526 101 503 101 480 101C457 101 434 101 411.2 101C388.3 101 365.7 101 342.8 101C320 101 297 101 274.2 101C251.3 101 228.7 101 205.8 101C183 101 160 101 137.2 101C114.3 101 91.7 101 68.8 101C46 101 23 101 11.5 101L0 101Z" fill="#191e23"></path><path d="M0 87L11.5 87.3C23 87.7 46 88.3 68.8 88.3C91.7 88.3 114.3 87.7 137.2 87.3C160 87 183 87 205.8 87.7C228.7 88.3 251.3 89.7 274.2 90C297 90.3 320 89.7 342.8 89.7C365.7 89.7 388.3 90.3 411.2 90C434 89.7 457 88.3 480 87.7C503 87 526 87 548.8 87.3C571.7 87.7 594.3 88.3 617.2 88.7C640 89 663 89 685.8 88.7C708.7 88.3 731.3 87.7 754.2 87.2C777 86.7 800 86.3 822.8 86.8C845.7 87.3 868.3 88.7 891.2 88.3C914 88 937 86 960 84.8C983 83.7 1006 83.3 1028.8 84C1051.7 84.7 1074.3 86.3 1097.2 87.7C1120 89 1143 90 1165.8 89.5C1188.7 89 1211.3 87 1234.2 86.5C1257 86 1280 87 1302.8 88C1325.7 89 1348.3 90 1371.2 90C1394 90 1417 89 1428.5 88.5L1440 88L1440 101L1428.5 101C1417 101 1394 101 1371.2 101C1348.3 101 1325.7 101 1302.8 101C1280 101 1257 101 1234.2 101C1211.3 101 1188.7 101 1165.8 101C1143 101 1120 101 1097.2 101C1074.3 101 1051.7 101 1028.8 101C1006 101 983 101 960 101C937 101 914 101 891.2 101C868.3 101 845.7 101 822.8 101C800 101 777 101 754.2 101C731.3 101 708.7 101 685.8 101C663 101 640 101 617.2 101C594.3 101 571.7 101 548.8 101C526 101 503 101 480 101C457 101 434 101 411.2 101C388.3 101 365.7 101 342.8 101C320 101 297 101 274.2 101C251.3 101 228.7 101 205.8 101C183 101 160 101 137.2 101C114.3 101 91.7 101 68.8 101C46 101 23 101 11.5 101L0 101Z" fill="#000000"></path></svg>