<svg id="visual" viewBox="0 0 1440 100" width="1440" height="100" xmlns="http://www.w3.org/2000/svg" xmlns:xlink="http://www.w3.org/1999/xlink" version="1.1"><path d="M0 39L11.5 38C23 37 46 35 68.8 35.3C91.7 35.7 114.3 38.3 137.2 39.2C160 40 183 39 205.8 38.7C228.7 38.3 251.3 38.7 274.2 37.7C297 36.7 320 34.3 342.8 34.2C365.7 34 388.3 36 411.2 36.3C434 36.7 457 35.3 480 34.3C503 33.3 526 32.7 548.8 33.8C571.7 35 594.3 38 617.2 39.2C640 40.3 663 39.7 685.8 38.8C708.7 38 731.3 37 754.2 36.3C777 35.7 800 35.3 822.8 34.8C845.7 34.3 868.3 33.7 891.2 34C914 34.3 937 35.7 960 37C983 38.3 1006 39.7 1028.8 39.2C1051.7 38.7 1074.3 36.3 1097.2 35.2C1120 34 1143 34 1165.8 34.7C1188.7 35.3 1211.3 36.7 1234.2 36.5C1257 36.3 1280 34.7 1302.8 35C1325.7 35.3 1348.3 37.7 1371.2 38.5C1394 39.3 1417 38.7 1428.5 38.3L1440 38L1440 0L1428.5 0C1417 0 1394 0 1371.2 0C1348.3 0 1325.7 0 1302.8 0C1280 0 1257 0 1234.2 0C1211.3 0 1188.7 0 1165.8 0C1143 0 1120 0 1097.2 0C1074.3 0 1051.7 0 1028.8 0C1006 0 983 0 960 0C937 0 914 0 891.2 0C868.3 0 845.7 0 822.8 0C800 0 777 0 754.2 0C731.3 0 708.7 0 685.8 0C663 0 640 0 617.2 0C594.3 0 571.7 0 548.8 0C526 0 503 0 480 0C457 0 434 0 411.2 0C388.3 0 365.7 0 342.8 0C320 0 297 0 274.2 0C251.3 0 228.7 0 205.8 0C183 0 160 0 137.2 0C114.3 0 91.7 0 68.8 0C46 0 23 0 11.5 0L0 0Z" fill="#30353a"></path><path d="M0 25L11.5 24.7C23 24.3 46 23.7 68.8 23.8C91.7 24 114.3 25 137.2 24.5C160 24 183 22 205.8 22.5C228.7 23 251.3 26 274.2 26.7C297 27.3 320 25.7 342.8 25C365.7 24.3 388.3 24.7 411.2 24.2C434 23.7 457 22.3 480 22.5C503 22.7 526 24.3 548.8 25.2C571.7 26 594.3 26 617.2 26C640 26 663 26 685.8 25.5C708.7 25 731.3 24 754.2 23C777 22 800 21 822.8 20.5C845.7 20 868.3 20 891.2 21C914 22 937 24 960 24.8C983 25.7 1006 25.3 1028.8 25C1051.7 24.7 1074.3 24.3 1097.2 24.3C1120 24.3 1143 24.7 1165.8 24C1188.7 23.3 1211.3 21.7 1234.2 21.7C1257 21.7 1280 23.3 1302.8 24.3C1325.7 25.3 1348.3 25.7 1371.2 25.2C1394 24.7 1417 23.3 1428.5 22.7L1440 22L1440 0L1428.5 0C1417 0 1394 0 1371.2 0C1348.3 0 1325.7 0 1302.8 0C1280 0 1257 0 1234.2 0C1211.3 0 1188.7 0 1165.8 0C1143 0 1120 0 1097.2 0C1074.3 0 1051.7 0 1028.8 0C1006 0 983 0 960 0C937 0 914 0 891.2 0C868.3 0 845.7 0 822.8 0C800 0 777 0 754.2 0C731.3 0 708.7 0 685.8 0C663 0 640 0 617.2 0C594.3 0 571.7 0 548.8 0C526 0 503 0 480 0C457 0 434 0 411.2 0C388.3 0 365.7 0 342.8 0C320 0 297 0 274.2 0C251.3 0 228.7 0 205.8 0C183 0 160 0 137.2 0C114.3 0 91.7 0 68.8 0C46 0 23 0 11.5 0L0 0Z" fill="#191e23"></path><path d="M0 11L11.5 10.7C23 10.3 46 9.7 68.8 9.7C91.7 9.7 114.3 10.3 137.2 10.7C160 11 183 11 205.8 10.3C228.7 9.7 251.3 8.3 274.2 8C297 7.7 320 8.3 342.8 8.3C365.7 8.3 388.3 7.7 411.2 8C434 8.3 457 9.7 480 10.3C503 11 526 11 548.8 10.7C571.7 10.3 594.3 9.7 617.2 9.3C640 9 663 9 685.8 9.3C708.7 9.7 731.3 10.3 754.2 10.8C777 11.3 800 11.7 822.8 11.2C845.7 10.7 868.3 9.3 891.2 9.7C914 10 937 12 960 13.2C983 14.3 1006 14.7 1028.8 14C1051.7 13.3 1074.3 11.7 1097.2 10.3C1120 9 1143 8 1165.8 8.5C1188.7 9 1211.3 11 1234.2 11.5C1257 12 1280 11 1302.8 10C1325.7 9 1348.3 8 1371.2 8C1394 8 1417 9 1428.5 9.5L1440 10L1440 0L1428.5 0C1417 0 1394 0 1371.2 0C1348.3 0 1325.7 0 1302.8 0C1280 0 1257 0 1234.2 0C1211.3 0 1188.7 0 1165.8 0C1143 0 1120 0 1097.2 0C1074.3 0 1051.7 0 1028.8 0C1006 0 983 0 960 0C937 0 914 0 891.2 0C868.3 0 845.7 0 822.8 0C800 0 777 0 754.2 0C731.3 0 708.7 0 685.8 0C663 0 640 0 617.2 0C594.3 0 571.7 0 548.8 0C526 0 503 0 480 0C457 0 434 0 411.2 0C388.3 0 365.7 0 342.8 0C320 0 297 0 274.2 0C251.3 0 228.7 0 205.8 0C183 0 160 0 137.2 0C114.3 0 91.7 0 68.8 0C46 0 23 0 11.5 0L0 0Z" fill="#000000"></path></svg>